<svg xmlns="http://www.w3.org/2000/svg" width="24" height="24" fill="none" viewBox="0 0 24 24">
    <g clipPath="url(#a)">
        <path stroke="#9B9B9B" strokeLinecap="round" strokeLinejoin="round" strokeWidth="2.333"
            d="M9 22a1 1 0 1 0 0-2 1 1 0 0 0 0 2Zm11 0a1 1 0 1 0 0-2 1 1 0 0 0 0 2ZM1 1h4l2.68 13.39a2 2 0 0 0 2 1.61h9.72a2 2 0 0 0 2-1.61L23 6H6" />
    </g>
    <defs>
        <clipPath id="a">
            <path fill="#fff" d="M0 0h24v24H0z" />
        </clipPath>
    </defs>
</svg>
