<svg xmlns="http://www.w3.org/2000/svg" width="18" height="18" fill="none" style="position: absolute;" viewBox="0 0 18 18">
    <path fill="#8E8E93" fillRule="evenodd"
        d="m17.67 16.167-4.929-4.93a6.976 6.976 0 0 0 1.35-4.156 7.112 7.112 0 0 0-7.07-7.08A6.99 6.99 0 0 0 0 7.03a7.113 7.113 0 0 0 7.07 7.081 6.954 6.954 0 0 0 4.168-1.365l.005-.004 4.924 4.927a1.063 1.063 0 1 0 1.502-1.503ZM7.066 12.7A5.69 5.69 0 0 1 1.41 7.036 5.593 5.593 0 0 1 7.025 1.41a5.69 5.69 0 0 1 5.657 5.665A5.593 5.593 0 0 1 7.066 12.7Z"
        clipRule="evenodd" />
</svg>
